<svg width="201" height="31" viewBox="0 0 201 31" fill="none" xmlns="http://www.w3.org/2000/svg">
<path d="M53.5488 17.9041H50.9121L45.7793 9.48413V17.9041H43.1426V5.10718H45.7793L50.9209 13.5447V5.10718H53.5488V17.9041ZM61.1953 17.9041C61.0781 17.6755 60.9932 17.3914 60.9404 17.0515C60.3252 17.7371 59.5254 18.0798 58.541 18.0798C57.6094 18.0798 56.8359 17.8103 56.2207 17.2712C55.6113 16.7322 55.3066 16.0525 55.3066 15.2322C55.3066 14.2244 55.6787 13.4509 56.4229 12.9119C57.1729 12.3728 58.2539 12.1003 59.666 12.0945H60.835V11.5496C60.835 11.1101 60.7207 10.7585 60.4922 10.4949C60.2695 10.2312 59.915 10.0994 59.4287 10.0994C59.001 10.0994 58.6641 10.2019 58.418 10.407C58.1777 10.6121 58.0576 10.8933 58.0576 11.2507H55.5176C55.5176 10.7 55.6875 10.1902 56.0273 9.72144C56.3672 9.25269 56.8477 8.88647 57.4688 8.6228C58.0898 8.35327 58.7871 8.21851 59.5605 8.21851C60.7324 8.21851 61.6611 8.5144 62.3467 9.1062C63.0381 9.69214 63.3838 10.5183 63.3838 11.5847V15.7068C63.3896 16.6091 63.5156 17.2917 63.7617 17.7546V17.9041H61.1953ZM59.0947 16.1375C59.4697 16.1375 59.8154 16.0554 60.1318 15.8914C60.4482 15.7214 60.6826 15.4958 60.835 15.2146V13.5798H59.8857C58.6143 13.5798 57.9375 14.0193 57.8555 14.8982L57.8467 15.0476C57.8467 15.364 57.958 15.6248 58.1807 15.8298C58.4033 16.0349 58.708 16.1375 59.0947 16.1375ZM62.8564 4.51831C62.8564 5.18042 62.6631 5.73706 62.2764 6.18823C61.8896 6.63354 61.418 6.8562 60.8613 6.8562C60.6387 6.8562 60.4395 6.83276 60.2637 6.78589C60.0938 6.73315 59.8564 6.62476 59.5518 6.46069C59.2471 6.29663 59.0273 6.19702 58.8926 6.16187C58.7578 6.12085 58.6113 6.10034 58.4531 6.10034C58.248 6.10034 58.0723 6.17358 57.9258 6.32007C57.7852 6.46655 57.7148 6.67456 57.7148 6.94409L56.2383 6.8562C56.2383 6.20581 56.4287 5.6521 56.8096 5.19507C57.1963 4.73804 57.668 4.50952 58.2246 4.50952C58.4004 4.50952 58.5645 4.53296 58.7168 4.57983C58.875 4.62085 59.1299 4.72632 59.4814 4.89624C59.833 5.06616 60.0762 5.1687 60.2109 5.20386C60.3457 5.23901 60.4863 5.25659 60.6328 5.25659C60.8379 5.25659 61.0137 5.18628 61.1602 5.04565C61.3125 4.89917 61.3887 4.69116 61.3887 4.42163L62.8564 4.51831ZM64.9395 13.0613C64.9395 12.1179 65.1211 11.2771 65.4844 10.5388C65.8477 9.80054 66.3691 9.22925 67.0488 8.82495C67.7344 8.42065 68.5283 8.21851 69.4307 8.21851C70.7139 8.21851 71.7598 8.61108 72.5684 9.39624C73.3828 10.1814 73.8369 11.2478 73.9307 12.5955L73.9482 13.2458C73.9482 14.7048 73.541 15.8767 72.7266 16.7615C71.9121 17.6404 70.8193 18.0798 69.4482 18.0798C68.0771 18.0798 66.9814 17.6404 66.1611 16.7615C65.3467 15.8826 64.9395 14.6873 64.9395 13.1755V13.0613ZM67.4795 13.2458C67.4795 14.1482 67.6494 14.8396 67.9893 15.3201C68.3291 15.7947 68.8154 16.032 69.4482 16.032C70.0635 16.032 70.5439 15.7976 70.8896 15.3289C71.2354 14.8542 71.4082 14.0984 71.4082 13.0613C71.4082 12.1765 71.2354 11.491 70.8896 11.0046C70.5439 10.5183 70.0576 10.2751 69.4307 10.2751C68.8096 10.2751 68.3291 10.5183 67.9893 11.0046C67.6494 11.4851 67.4795 12.2322 67.4795 13.2458ZM83.0361 6.0564V8.39429H84.6621V10.2576H83.0361V15.0037C83.0361 15.3552 83.1035 15.6072 83.2383 15.7595C83.373 15.9119 83.6309 15.988 84.0117 15.988C84.293 15.988 84.542 15.9675 84.7588 15.9265V17.8513C84.2607 18.0037 83.748 18.0798 83.2207 18.0798C81.4395 18.0798 80.5312 17.1804 80.4961 15.3816V10.2576H79.1074V8.39429H80.4961V6.0564H83.0361ZM90.4541 18.0798C89.0596 18.0798 87.9229 17.6521 87.0439 16.7966C86.1709 15.9412 85.7344 14.8015 85.7344 13.3777V13.1316C85.7344 12.1765 85.9189 11.324 86.2881 10.574C86.6572 9.81812 87.1787 9.23804 87.8525 8.83374C88.5322 8.42358 89.3057 8.21851 90.1729 8.21851C91.4736 8.21851 92.4961 8.62866 93.2402 9.44897C93.9902 10.2693 94.3652 11.4324 94.3652 12.9382V13.9753H88.3096C88.3916 14.5964 88.6377 15.0945 89.0479 15.4695C89.4639 15.8445 89.9883 16.032 90.6211 16.032C91.5996 16.032 92.3643 15.6775 92.915 14.9685L94.1631 16.366C93.7822 16.905 93.2666 17.3269 92.6162 17.6316C91.9658 17.9304 91.2451 18.0798 90.4541 18.0798ZM90.1641 10.2751C89.6602 10.2751 89.25 10.4451 88.9336 10.7849C88.623 11.1248 88.4238 11.6111 88.3359 12.2439H91.8691V12.0417C91.8574 11.4792 91.7051 11.0457 91.4121 10.741C91.1191 10.4304 90.7031 10.2751 90.1641 10.2751ZM98.1533 8.39429L98.2324 9.49292C98.9121 8.64331 99.8232 8.21851 100.966 8.21851C101.974 8.21851 102.724 8.5144 103.216 9.1062C103.708 9.698 103.96 10.5828 103.972 11.7605V17.9041H101.432V11.822C101.432 11.283 101.314 10.8933 101.08 10.6531C100.846 10.407 100.456 10.2839 99.9111 10.2839C99.1963 10.2839 98.6602 10.5886 98.3027 11.198V17.9041H95.7627V8.39429H98.1533ZM108.384 9.4314C109.058 8.6228 109.904 8.21851 110.924 8.21851C112.986 8.21851 114.032 9.41675 114.062 11.8132V17.9041H111.521V11.8835C111.521 11.3386 111.404 10.9373 111.17 10.6794C110.936 10.4158 110.546 10.2839 110.001 10.2839C109.257 10.2839 108.718 10.571 108.384 11.1453V17.9041H105.844V4.40405H108.384V9.4314ZM115.582 13.0613C115.582 12.1179 115.764 11.2771 116.127 10.5388C116.49 9.80054 117.012 9.22925 117.691 8.82495C118.377 8.42065 119.171 8.21851 120.073 8.21851C121.356 8.21851 122.402 8.61108 123.211 9.39624C124.025 10.1814 124.479 11.2478 124.573 12.5955L124.591 13.2458C124.591 14.7048 124.184 15.8767 123.369 16.7615C122.555 17.6404 121.462 18.0798 120.091 18.0798C118.72 18.0798 117.624 17.6404 116.804 16.7615C115.989 15.8826 115.582 14.6873 115.582 13.1755V13.0613ZM118.122 13.2458C118.122 14.1482 118.292 14.8396 118.632 15.3201C118.972 15.7947 119.458 16.032 120.091 16.032C120.706 16.032 121.187 15.7976 121.532 15.3289C121.878 14.8542 122.051 14.0984 122.051 13.0613C122.051 12.1765 121.878 11.491 121.532 11.0046C121.187 10.5183 120.7 10.2751 120.073 10.2751C119.452 10.2751 118.972 10.5183 118.632 11.0046C118.292 11.4851 118.122 12.2322 118.122 13.2458ZM134.593 16.032C135.062 16.032 135.442 15.9031 135.735 15.6453C136.028 15.3875 136.181 15.0447 136.192 14.6169H138.574C138.568 15.2615 138.393 15.8533 138.047 16.3923C137.701 16.9255 137.227 17.3416 136.623 17.6404C136.025 17.9333 135.363 18.0798 134.637 18.0798C133.277 18.0798 132.205 17.6492 131.42 16.7878C130.635 15.9207 130.242 14.7253 130.242 13.2019V13.0349C130.242 11.5701 130.632 10.4011 131.411 9.52808C132.19 8.65503 133.26 8.21851 134.619 8.21851C135.809 8.21851 136.761 8.55835 137.476 9.23804C138.196 9.91187 138.562 10.8113 138.574 11.9363H136.192C136.181 11.4441 136.028 11.0457 135.735 10.741C135.442 10.4304 135.056 10.2751 134.575 10.2751C133.983 10.2751 133.535 10.4919 133.23 10.9255C132.932 11.3533 132.782 12.0505 132.782 13.0173V13.281C132.782 14.2595 132.932 14.9626 133.23 15.3904C133.529 15.8181 133.983 16.032 134.593 16.032ZM145.535 17.9041C145.418 17.6755 145.333 17.3914 145.28 17.0515C144.665 17.7371 143.865 18.0798 142.881 18.0798C141.949 18.0798 141.176 17.8103 140.561 17.2712C139.951 16.7322 139.646 16.0525 139.646 15.2322C139.646 14.2244 140.019 13.4509 140.763 12.9119C141.513 12.3728 142.594 12.1003 144.006 12.0945H145.175V11.5496C145.175 11.1101 145.061 10.7585 144.832 10.4949C144.609 10.2312 144.255 10.0994 143.769 10.0994C143.341 10.0994 143.004 10.2019 142.758 10.407C142.518 10.6121 142.397 10.8933 142.397 11.2507H139.857C139.857 10.7 140.027 10.1902 140.367 9.72144C140.707 9.25269 141.188 8.88647 141.809 8.6228C142.43 8.35327 143.127 8.21851 143.9 8.21851C145.072 8.21851 146.001 8.5144 146.687 9.1062C147.378 9.69214 147.724 10.5183 147.724 11.5847V15.7068C147.729 16.6091 147.855 17.2917 148.102 17.7546V17.9041H145.535ZM143.435 16.1375C143.81 16.1375 144.155 16.0554 144.472 15.8914C144.788 15.7214 145.022 15.4958 145.175 15.2146V13.5798H144.226C142.954 13.5798 142.277 14.0193 142.195 14.8982L142.187 15.0476C142.187 15.364 142.298 15.6248 142.521 15.8298C142.743 16.0349 143.048 16.1375 143.435 16.1375ZM149.279 13.0789C149.279 11.5964 149.61 10.4158 150.272 9.53687C150.94 8.65796 151.852 8.21851 153.006 8.21851C153.932 8.21851 154.696 8.56421 155.3 9.25562V4.40405H157.849V17.9041H155.555L155.432 16.8933C154.799 17.6843 153.984 18.0798 152.988 18.0798C151.869 18.0798 150.97 17.6404 150.29 16.7615C149.616 15.8767 149.279 14.6492 149.279 13.0789ZM151.819 13.2634C151.819 14.1541 151.975 14.8367 152.285 15.3113C152.596 15.7859 153.047 16.0232 153.639 16.0232C154.424 16.0232 154.978 15.6921 155.3 15.03V11.2771C154.983 10.615 154.436 10.2839 153.656 10.2839C152.432 10.2839 151.819 11.2771 151.819 13.2634ZM165.328 17.9041C165.211 17.6755 165.126 17.3914 165.073 17.0515C164.458 17.7371 163.658 18.0798 162.674 18.0798C161.742 18.0798 160.969 17.8103 160.354 17.2712C159.744 16.7322 159.439 16.0525 159.439 15.2322C159.439 14.2244 159.812 13.4509 160.556 12.9119C161.306 12.3728 162.387 12.1003 163.799 12.0945H164.968V11.5496C164.968 11.1101 164.854 10.7585 164.625 10.4949C164.402 10.2312 164.048 10.0994 163.562 10.0994C163.134 10.0994 162.797 10.2019 162.551 10.407C162.311 10.6121 162.19 10.8933 162.19 11.2507H159.65C159.65 10.7 159.82 10.1902 160.16 9.72144C160.5 9.25269 160.98 8.88647 161.602 8.6228C162.223 8.35327 162.92 8.21851 163.693 8.21851C164.865 8.21851 165.794 8.5144 166.479 9.1062C167.171 9.69214 167.517 10.5183 167.517 11.5847V15.7068C167.522 16.6091 167.648 17.2917 167.895 17.7546V17.9041H165.328ZM163.228 16.1375C163.603 16.1375 163.948 16.0554 164.265 15.8914C164.581 15.7214 164.815 15.4958 164.968 15.2146V13.5798H164.019C162.747 13.5798 162.07 14.0193 161.988 14.8982L161.979 15.0476C161.979 15.364 162.091 15.6248 162.313 15.8298C162.536 16.0349 162.841 16.1375 163.228 16.1375ZM174.618 15.2761C174.618 14.9656 174.463 14.7224 174.152 14.5466C173.848 14.365 173.355 14.2039 172.676 14.0632C170.414 13.5886 169.283 12.6277 169.283 11.1804C169.283 10.3367 169.632 9.63354 170.329 9.07104C171.032 8.50269 171.949 8.21851 173.08 8.21851C174.287 8.21851 175.251 8.50269 175.972 9.07104C176.698 9.6394 177.062 10.3777 177.062 11.2859H174.521C174.521 10.9226 174.404 10.6238 174.17 10.3894C173.936 10.1492 173.569 10.0291 173.071 10.0291C172.644 10.0291 172.312 10.1257 172.078 10.3191C171.844 10.5125 171.727 10.7585 171.727 11.0574C171.727 11.3386 171.858 11.5671 172.122 11.7429C172.392 11.9128 172.843 12.0623 173.476 12.1912C174.108 12.3142 174.642 12.4548 175.075 12.613C176.417 13.1052 177.088 13.9578 177.088 15.1707C177.088 16.0378 176.716 16.741 175.972 17.28C175.228 17.8132 174.267 18.0798 173.089 18.0798C172.292 18.0798 171.583 17.9392 170.962 17.658C170.347 17.3708 169.863 16.9812 169.512 16.489C169.16 15.991 168.984 15.4548 168.984 14.8806H171.393C171.416 15.3318 171.583 15.6775 171.894 15.9177C172.204 16.158 172.62 16.2781 173.142 16.2781C173.628 16.2781 173.994 16.1873 174.24 16.0056C174.492 15.8181 174.618 15.575 174.618 15.2761ZM181.772 6.0564V8.39429H183.398V10.2576H181.772V15.0037C181.772 15.3552 181.84 15.6072 181.975 15.7595C182.109 15.9119 182.367 15.988 182.748 15.988C183.029 15.988 183.278 15.9675 183.495 15.9265V17.8513C182.997 18.0037 182.484 18.0798 181.957 18.0798C180.176 18.0798 179.268 17.1804 179.232 15.3816V10.2576H177.844V8.39429H179.232V6.0564H181.772ZM190.157 10.7761C189.812 10.7292 189.507 10.7058 189.243 10.7058C188.282 10.7058 187.652 11.031 187.354 11.6814V17.9041H184.813V8.39429H187.213L187.283 9.52808C187.793 8.65503 188.499 8.21851 189.401 8.21851C189.683 8.21851 189.946 8.25659 190.192 8.33276L190.157 10.7761ZM190.676 13.0613C190.676 12.1179 190.857 11.2771 191.221 10.5388C191.584 9.80054 192.105 9.22925 192.785 8.82495C193.471 8.42065 194.265 8.21851 195.167 8.21851C196.45 8.21851 197.496 8.61108 198.305 9.39624C199.119 10.1814 199.573 11.2478 199.667 12.5955L199.685 13.2458C199.685 14.7048 199.277 15.8767 198.463 16.7615C197.648 17.6404 196.556 18.0798 195.185 18.0798C193.813 18.0798 192.718 17.6404 191.897 16.7615C191.083 15.8826 190.676 14.6873 190.676 13.1755V13.0613ZM193.216 13.2458C193.216 14.1482 193.386 14.8396 193.726 15.3201C194.065 15.7947 194.552 16.032 195.185 16.032C195.8 16.032 196.28 15.7976 196.626 15.3289C196.972 14.8542 197.145 14.0984 197.145 13.0613C197.145 12.1765 196.972 11.491 196.626 11.0046C196.28 10.5183 195.794 10.2751 195.167 10.2751C194.546 10.2751 194.065 10.5183 193.726 11.0046C193.386 11.4851 193.216 12.2322 193.216 13.2458Z" fill="#41414D"/>
<g filter="url(#filter0_d)">
<path d="M17 3.09601H21C21.5304 3.09601 22.0391 3.30672 22.4142 3.68179C22.7893 4.05687 23 4.56558 23 5.09601V19.096C23 19.6264 22.7893 20.1351 22.4142 20.5102C22.0391 20.8853 21.5304 21.096 21 21.096H17" stroke="#E02041" stroke-width="2" stroke-linecap="round" stroke-linejoin="round" shape-rendering="crispEdges"/>
</g>
<g filter="url(#filter1_d)">
<path d="M12 17.096L17 12.096L12 7.09601" stroke="#E02041" stroke-width="2" stroke-linecap="round" stroke-linejoin="round" shape-rendering="crispEdges"/>
</g>
<g filter="url(#filter2_d)">
<path d="M17 12.096H5" stroke="#E02041" stroke-width="2" stroke-linecap="round" stroke-linejoin="round"/>
</g>
<defs>
<filter id="filter0_d" x="12" y="2.09601" width="16" height="28" filterUnits="userSpaceOnUse" color-interpolation-filters="sRGB">
<feFlood flood-opacity="0" result="BackgroundImageFix"/>
<feColorMatrix in="SourceAlpha" type="matrix" values="0 0 0 0 0 0 0 0 0 0 0 0 0 0 0 0 0 0 127 0" result="hardAlpha"/>
<feOffset dy="4"/>
<feGaussianBlur stdDeviation="2"/>
<feComposite in2="hardAlpha" operator="out"/>
<feColorMatrix type="matrix" values="0 0 0 0 0 0 0 0 0 0 0 0 0 0 0 0 0 0 0.25 0"/>
<feBlend mode="normal" in2="BackgroundImageFix" result="effect1_dropShadow"/>
<feBlend mode="normal" in="SourceGraphic" in2="effect1_dropShadow" result="shape"/>
</filter>
<filter id="filter1_d" x="7" y="6.09601" width="15" height="20" filterUnits="userSpaceOnUse" color-interpolation-filters="sRGB">
<feFlood flood-opacity="0" result="BackgroundImageFix"/>
<feColorMatrix in="SourceAlpha" type="matrix" values="0 0 0 0 0 0 0 0 0 0 0 0 0 0 0 0 0 0 127 0" result="hardAlpha"/>
<feOffset dy="4"/>
<feGaussianBlur stdDeviation="2"/>
<feComposite in2="hardAlpha" operator="out"/>
<feColorMatrix type="matrix" values="0 0 0 0 0 0 0 0 0 0 0 0 0 0 0 0 0 0 0.25 0"/>
<feBlend mode="normal" in2="BackgroundImageFix" result="effect1_dropShadow"/>
<feBlend mode="normal" in="SourceGraphic" in2="effect1_dropShadow" result="shape"/>
</filter>
<filter id="filter2_d" x="0" y="11.096" width="22" height="10" filterUnits="userSpaceOnUse" color-interpolation-filters="sRGB">
<feFlood flood-opacity="0" result="BackgroundImageFix"/>
<feColorMatrix in="SourceAlpha" type="matrix" values="0 0 0 0 0 0 0 0 0 0 0 0 0 0 0 0 0 0 127 0" result="hardAlpha"/>
<feOffset dy="4"/>
<feGaussianBlur stdDeviation="2"/>
<feComposite in2="hardAlpha" operator="out"/>
<feColorMatrix type="matrix" values="0 0 0 0 0 0 0 0 0 0 0 0 0 0 0 0 0 0 0.25 0"/>
<feBlend mode="normal" in2="BackgroundImageFix" result="effect1_dropShadow"/>
<feBlend mode="normal" in="SourceGraphic" in2="effect1_dropShadow" result="shape"/>
</filter>
</defs>
</svg>
